<?xml version="1.0" encoding="UTF-8"?>
<svg id="_图层_1" data-name="图层_1" xmlns="http://www.w3.org/2000/svg" version="1.1" viewBox="0 0 128 128">
  <!-- Generator: Adobe Illustrator 30.1.0, SVG Export Plug-In . SVG Version: 2.1.1 Build 136)  -->
  <defs>
    <style>
      .st0, .st1 {
        fill: #fff;
      }

      .st2 {
        fill: #0c77c6;
      }

      .st3 {
        fill: #478cbf;
      }

      .st1 {
        isolation: isolate;
        opacity: .5;
      }

      .st4 {
        fill: #0959b7;
      }

      .st5 {
        fill: #414042;
      }
    </style>
  </defs>
  <g>
    <path class="st0" d="M22.93,80.3v3.33c27.4,23.84,54.81,23.84,82.21,0v-3.33H22.93Z"/>
    <path class="st3" d="M22.93,80.3l15.35,1.41c.81.07,1.31.54,1.52,1.41l.4,6.77,13.33,1.01.81-6.16c.13-.74.64-1.25,1.52-1.52h16.36c.88.27,1.38.77,1.52,1.52l.81,6.16,13.33-1.01.4-6.77c.2-.88.71-1.35,1.52-1.41l15.35-1.41v-24.85c2.02-2.63,3.91-5.35,5.66-8.18-2.36-3.97-5.15-7.61-8.38-10.91-2.9,1.35-5.66,2.93-8.28,4.75-2.69-2.49-5.66-4.65-8.89-6.46.47-3.43.74-6.87.81-10.3-3.97-1.89-8.11-3.3-12.42-4.24-1.75,2.9-3.3,5.89-4.65,8.99-3.3-.47-6.6-.47-9.9,0-1.35-3.1-2.9-6.09-4.65-8.99-4.31.94-8.45,2.36-12.42,4.24.07,3.43.34,6.87.81,10.3-3.23,1.82-6.19,3.97-8.89,6.46-2.63-1.82-5.39-3.4-8.28-4.75-3.23,3.3-6.03,6.94-8.38,10.91,1.75,2.83,3.64,5.56,5.66,8.18v24.85ZM22.93,83.63v3.94c0,27.88,82.11,27.88,82.21,0v-3.94l-13.53,1.21-.51,6.97c-.13.67-.61,1.11-1.41,1.31l-16.36,1.11c-.81,0-1.35-.37-1.62-1.11l-1.01-6.57h-13.33l-1.01,6.57c-.27.74-.81,1.11-1.62,1.11l-16.36-1.11c-.81-.2-1.28-.64-1.41-1.31l-.51-6.97-13.53-1.21Z"/>
    <path class="st0" d="M61.11,72.92c0,3.43,5.86,3.43,5.86,0v-8.69c0-3.43-5.86-3.43-5.86,0v8.69Z"/>
    <circle class="st0" cx="85.55" cy="65.45" r="9.09"/>
    <circle class="st0" cx="42.52" cy="65.45" r="9.09"/>
  </g>
  <g>
    <circle class="st5" cx="43.33" cy="66.05" r="6.06"/>
    <circle class="st5" cx="84.74" cy="66.05" r="6.06"/>
  </g>
  <path class="st2" d="M18.2.2C12.6.2,8,4.6,8,10.2v107.8c0,5.6,4.6,10,10.2,10h91.6c5.6,0,10.2-4.4,10.2-10V40.8L82.2.2S18.2.2,18.2.2Z"/>
  <path class="st4" d="M120,40.8v2h-25.6s-12.6-2.6-12.4-13.6c0,0,.6,11.6,12.2,11.6h25.8Z"/>
  <path class="st1" d="M82.2,0v29.2c0,3.2,2.2,11.6,12.2,11.6h25.6L82.2,0Z"/>
  <path class="st0" d="M38,98h-6.8v8.4c0,.8-.6,1.4-1.4,1.4s-1.6-.6-1.6-1.4v-20.6c0-1.2,1-2.2,2.2-2.2h7.6c4.8,0,7.4,3.2,7.4,7.2s-2.8,7.2-7.4,7.2ZM37.6,86.2h-6.4v9.2h6.4c2.8,0,4.8-2,4.8-4.6,0-2.8-2-4.6-4.8-4.6ZM58,108c-3.6,0-6.4-1.2-8.4-3-.2-.2-.4-.6-.4-1,0-.8.6-1.6,1.4-1.6.2,0,.6,0,.8.4,1.6,1.4,4,2.6,6.8,2.6,4.2,0,5.6-2.4,5.6-4.2,0-6.2-14.2-2.8-14.2-11.4,0-4,3.6-6.6,8.2-6.6,3.2,0,5.8,1,7.8,2.6.2.2.4.6.4,1,0,.8-.6,1.4-1.4,1.4-.2,0-.6,0-.8-.2-1.8-1.6-4-2.2-6.2-2.2-2.8,0-5,1.6-5,3.8,0,5.4,14.4,2.4,14.4,11.4,0,3.4-2.4,7-9,7h0ZM80.4,107.6h-6c-1.2,0-2.2-1-2.2-2.2v-19.6c0-1.2,1-2.2,2.2-2.2h6c7.6,0,12.4,5.2,12.4,12s-4.8,12-12.4,12h0ZM80.4,86.2h-5.2v18.8h5.2c6,0,9.4-4.2,9.4-9.4s-3.4-9.4-9.4-9.4Z"/>
</svg>